<svg width="411" height="488" viewBox="0 0 411 488" xmlns="http://www.w3.org/2000/svg"><path d="M382.01 270.537L222.137 154.385c-8.05-5.854-18.963-5.854-27.008 0l-71.254 51.763c-4.156 3.017-9.25 4.243-14.314 3.432-5.07-.8-9.533-3.534-12.555-7.69-3.017-4.156-4.238-9.236-3.438-14.315.805-5.07 3.534-9.527 7.695-12.55l50.522-36.71h.01l43.975-31.953c24.58-17.85 58.453-15.648 80.417 5.305 4.853 4.633 12.426 4.91 17.86.965l87.96-63.902v221.807zm-2.013 45.402l-.236 1.533c-.522 3.355-2.77 8.193-5.222 10.538-6.46 6.163-15.946 6.65-22.846 1.638l-78.027-56.756-.564-.405c-4.735-3.437-12.462-3.39-16.766.57-6.265 5.782-5.444 15.443 1.082 20.19l.955.69 71.563 51.995c3.986 2.9 6.92 7.193 7.603 12.073.944 6.757-1.785 13.108-7.137 16.992l-1.647 1.19c-6.224 4.526-14.654 4.526-20.877 0l-88.755-64.48c-4.73-3.44-12.46-3.393-16.766.568-6.264 5.782-5.443 15.454 1.083 20.184l72.516 52.69c3.992 2.9 6.922 7.19 7.604 12.073.94 6.757-1.78 13.11-7.137 16.993l-1.642 1.19c-6.228 4.525-14.653 4.525-20.88 0l-16.163-11.75-72.593-52.732c-4.73-3.437-12.468-3.396-16.762.57-6.27 5.777-5.45 15.443 1.077 20.184l72.522 52.69c3.986 2.9 6.915 7.19 7.597 12.074.94 6.757-1.785 13.103-7.136 16.992l-1.595 1.16c-5.577 4.053-12.857 4.474-18.8 1.283L28.478 329.77V48.73l99.196 72.07-43.067 31.292c-10.287 7.465-17.05 18.496-19.034 31.05-1.996 12.555 1.03 25.13 8.5 35.407 7.47 10.29 18.497 17.043 31.052 19.04 2.52.4 5.043.594 7.547.594 9.97 0 19.65-3.13 27.865-9.102l60.254-43.764c4.673-3.402 11.01-3.402 15.684 0l158.064 114.895c4.3 3.987 6.383 9.825 5.46 15.726zM361.69 28.437l-71.633 52.05c-2.195 1.59-5.166 1.74-7.44.257-29.14-18.994-67.067-19.82-97.24-1.467-.913.4-1.81.892-2.642 1.503l-30.96 22.49L48.79 28.437h312.9zm44.52-24.196c-2.658-2.663-6.27-4.15-10.025-4.15H14.3C6.473.092.13 6.432.13 14.262L.12 336.99c.01 4.54 2.175 8.8 5.85 11.466l183.69 133.51.006.005c9.292 6.748 21.862 6.748 31.153 0L404.516 348.51c3.673-2.668 5.838-6.932 5.838-11.472V14.266c0-3.76-1.488-7.366-4.145-10.024z" fill="#FFF" fill-rule="evenodd"/></svg>